<svg fill="#000" width="800" height="800" viewBox="144 144 512 512" xmlns="http://www.w3.org/2000/svg"><g fill-rule="evenodd"><path d="m274.05 415.74c-8.6953.0-15.746-7.0469-15.746-15.742s7.0508-15.746 15.746-15.746h251.9c8.6953.0 15.746 7.0508 15.746 15.746s-7.0508 15.742-15.746 15.742z"/><path d="m420.36 316.67c-6.1484-6.1484-6.1484-16.117.0-22.266 6.1484-6.1484 16.117-6.1484 22.266.0l94.461 94.465c6.1484 6.1484 6.1484 16.117.0 22.266l-94.461 94.461c-6.1484 6.1484-16.117 6.1484-22.266.0-6.1484-6.1484-6.1484-16.117.0-22.266l83.328-83.328z"/></g></svg>